<?xml version="1.0" encoding="UTF-8"?>
<svg width="18px" height="18px" viewBox="0 0 18 18" version="1.1" xmlns="http://www.w3.org/2000/svg">
    <g stroke="none" stroke-width="1" fill="none" fill-rule="evenodd">
        <path d="M9,0.375 C4.02975,0.375 0,4.40475 0,9.375 C0,13.3605 2.57925,16.7407 6.15675,17.9153 C6.60675,18.0003 6.77175,17.7305 6.77175,17.4982 C6.77175,17.2902 6.76425,16.7407 6.76425,15.9892 C4.5,16.4767 3.915,15.4642 3.735,14.9392 C3.63825,14.6843 3.195,13.8577 2.8125,13.6497 C2.4975,13.4793 2.0475,12.9918 2.80425,12.9843 C3.51,12.9768 4.01625,13.6647 4.185,13.9272 C4.995,15.3192 6.28875,14.9767 6.80625,14.7442 C6.89025,14.1442 7.12575,13.7467 7.3845,13.5237 C5.38575,13.3007 3.285,12.4892 3.285,9.0375 C3.285,8.0625 3.63825,7.2585 4.2075,6.6285 C4.1145,6.4055 3.7995,5.4757 4.29675,4.2307 C4.29675,4.2307 5.05125,3.9982 6.77175,5.1382 C7.4925,4.9377 8.25375,4.8375 9.015,4.8375 C9.77625,4.8375 10.5375,4.9377 11.2583,5.1382 C12.9788,3.9907 13.7333,4.2307 13.7333,4.2307 C14.2305,5.4757 13.9155,6.4055 13.8225,6.6285 C14.3918,7.2585 14.745,8.055 14.745,9.0375 C14.745,12.4967 12.6367,13.3007 10.638,13.5237 C10.9605,13.8007 11.2433,14.3407 11.2433,15.1822 C11.2433,16.4017 11.2358,17.1982 11.2358,17.4982 C11.2358,17.7305 11.4008,18.0078 11.8508,17.9153 C15.4208,16.7407 18,13.353 18,9.375 C18,4.40475 13.9703,0.375 9,0.375" fill="#FFFFFF" fill-rule="nonzero"/>
    </g>
</svg> 